# xmcd
#
# Track frame offsets: 
#        150
#        26742
#        45160
#        63368
#        74863
#        88208
#        100742
#        135628
#        147461
#        169880
#        182390
#        202025
#
# Disc length: 2935 seconds
#
# Revision: 0
# Processed by: cddbd v1.5.2PL0 Copyright (c) Steve Scherf et al.
# Submitted via: ExactAudioCopy v0.99pb5
#
DISCID=b00b750c
DTITLE=Smokey Robinson - Love Songs
DYEAR=2009
DGENRE=R&B
TTITLE0=Cruisin'
TTITLE1=One Heartbeat
TTITLE2=Baby Baby Don't Cry
TTITLE3=Choosey Beggar
TTITLE4=Swept For You Baby
TTITLE5=More Love
TTITLE6=Quiet Storm
TTITLE7=My Love For You
TTITLE8=Baby Come Close
TTITLE9=Ooo Baby Baby
TTITLE10=I've Made Love to You a Thousand Times
TTITLE11=Being With You
EXTD=
EXTT0=
EXTT1=
EXTT2=
EXTT3=
EXTT4=
EXTT5=
EXTT6=
EXTT7=
EXTT8=
EXTT9=
EXTT10=
EXTT11=
PLAYORDER=
